<svg viewBox="0 0 414 94" fill="none" xmlns="http://www.w3.org/2000/svg" preserveAspectRatio="none">
<mask id="mask0_33_165" style="mask-type:alpha" maskUnits="userSpaceOnUse" x="0" y="0" width="414" height="94">
<rect width="414" height="94" fill="white"/>
</mask>
<g mask="url(#mask0_33_165)">
<rect x="-61" y="-8" width="100" height="100" rx="50" fill="#EADBE0"/>
<rect x="24" y="-7" width="59" height="59" rx="29.5" fill="#EADBE0"/>
<rect x="-5" y="-31" width="59" height="59" rx="29.5" fill="#EADBE0"/>
<rect x="182" y="-27" width="75" height="75" rx="37.5" fill="#EADBE0"/>
<rect x="127" y="-51" width="75" height="75" rx="37.5" fill="#EADBE0"/>
<rect x="63" y="-28" width="75" height="75" rx="37.5" fill="#EADBE0"/>
<rect x="108" y="-9" width="38" height="38" rx="19" fill="#EADBE0"/>
<rect x="245" y="-16" width="38" height="38" rx="19" fill="#EADBE0"/>
<rect x="311" y="-14" width="38" height="38" rx="19" fill="#EADBE0"/>
<rect x="330" y="-9" width="63" height="63" rx="31.5" fill="#EADBE0"/>
<rect x="267" y="-28" width="63" height="63" rx="31.5" fill="#EADBE0"/>
<rect x="369" y="-28" width="63" height="63" rx="31.5" fill="#EADBE0"/>
<rect x="369" y="5" width="75" height="75" rx="37.5" fill="#EADBE0"/>
</g>
</svg>
