<svg viewBox="0 0 1920 282" fill="none" xmlns="http://www.w3.org/2000/svg" preserveAspectRatio="none">
<mask id="mask0_31_142" style="mask-type:alpha" maskUnits="userSpaceOnUse" x="0" y="0" width="1920" height="282">
<rect width="1920" height="282" fill="white"/>
</mask>
<g mask="url(#mask0_31_142)">
<rect x="115.65" y="-1.99561" width="167.317" height="185.67" rx="83.6585" fill="#EADBE0"/>
<rect width="168.325" height="185.67" rx="84.1625" transform="matrix(-1 0 0 1 1844.26 -24)" fill="#EADBE0"/>
<rect x="18.8886" y="131.646" width="76.603" height="84.6735" rx="38.3015" fill="#EADBE0"/>
<rect width="76.603" height="84.6735" rx="38.3015" transform="matrix(-1 0 0 1 1941.02 109.641)" fill="#EADBE0"/>
<rect x="731.498" y="38.8108" width="76.603" height="84.6735" rx="38.3015" fill="#EADBE0"/>
<rect x="1000.62" y="53.0931" width="76.603" height="84.6735" rx="38.3015" fill="#EADBE0"/>
<rect x="1250.58" y="73.4963" width="39.3094" height="43.867" rx="19.6547" fill="#EADBE0"/>
<rect x="1279.81" y="46.972" width="93.7378" height="96.9155" rx="46.8689" fill="#EADBE0"/>
<rect x="666.99" y="63.2947" width="76.603" height="84.6735" rx="38.3015" fill="#EADBE0"/>
<rect width="124.282" height="112.924" rx="56.4622" transform="matrix(0.592481 0.805585 -0.798686 0.601748 117.143 25.5486)" fill="#EADBE0"/>
<rect width="124.502" height="113.125" rx="56.5623" transform="matrix(-0.592481 0.805585 0.798686 0.601748 1842.39 3.24109)" fill="#EADBE0"/>
<rect width="103.614" height="94.1449" rx="47.0725" transform="matrix(0.592481 0.805585 -0.798686 0.601748 33.6048 34.7302)" fill="#EADBE0"/>
<rect width="103.797" height="94.3119" rx="47.1559" transform="matrix(-0.592481 0.805585 0.798686 0.601748 1926.08 12.4385)" fill="#EADBE0"/>
<rect width="147.891" height="223.244" rx="73.9456" transform="matrix(0.953882 -0.300181 0.293651 0.955913 847.41 -74.0876)" fill="#EADBE0"/>
<rect x="793.99" y="-29.54" width="184.452" height="204.033" rx="91.5" fill="#EADBE0"/>
<path d="M-61.9898 153.428C-69.9161 128.453 -57.1565 101.464 -32.833 91.7557C-5.58429 80.8803 24.9099 95.9479 32.8572 124.214L57.9972 213.629C60.3913 222.144 60.403 231.172 58.031 239.722C45.2065 285.95 -19.4381 287.506 -33.9007 241.935L-61.9898 153.428Z" fill="#EADBE0"/>
<path d="M2021.84 131.347C2029.78 106.327 2017 79.2898 1992.63 69.5644C1965.34 58.6694 1934.79 73.7635 1926.83 102.08L1901.64 191.654C1899.24 200.184 1899.23 209.228 1901.61 217.794C1914.46 264.104 1979.22 265.664 1993.7 220.011L2021.84 131.347Z" fill="#EADBE0"/>
<rect x="257.769" y="53.0931" width="89.7061" height="98.9558" rx="44.8531" fill="#EADBE0"/>
<rect width="89.7061" height="98.9558" rx="44.8531" transform="matrix(-1 0 0 1 1701.13 31.0889)" fill="#EADBE0"/>
<rect width="82.2596" height="79.063" rx="39.5315" transform="matrix(-0.0211867 -0.999776 -0.999764 0.0217037 1529.93 149.616)" fill="#EADBE0"/>
<rect x="1054.04" y="-67.2861" width="216.706" height="235.658" rx="107.5" fill="#EADBE0"/>
<rect x="1312.07" y="-107.073" width="216.706" height="235.658" rx="107.5" fill="#EADBE0"/>
<rect x="319.253" y="15.3472" width="155.222" height="171.387" rx="77.6109" fill="#EADBE0"/>
<rect width="155.222" height="171.387" rx="77.6109" transform="matrix(-1 0 0 1 1639.65 -29.54)" fill="#EADBE0"/>
<path d="M430.68 -55.7758C423.561 -89.894 443.774 -123.924 477.127 -133.974C513.418 -144.91 551.333 -123.455 560.656 -86.7067L596.342 53.9508C598.259 61.5076 598.902 69.3398 598.246 77.1238C591.453 157.624 476.8 165.268 460.328 86.3184L430.68 -55.7758Z" fill="#EADBE0"/>
<rect x="551.078" y="-32.6006" width="165.301" height="164.246" rx="82.1231" fill="#EADBE0"/>
<rect x="-7.31769" y="-30.5603" width="1935.23" height="115.278" fill="#EADBE0"/>
</g>
</svg>
